<?xml version="1.0" encoding="UTF-8"?>
<!-- Generator: Adobe Illustrator 19.0.0, SVG Export Plug-In . SVG Version: 6.00 Build 0)  -->
<svg version="1.0" id="Layer_1" xmlns="http://www.w3.org/2000/svg" xmlns:xlink="http://www.w3.org/1999/xlink" x="0px" y="0px" viewBox="-419 171 300 100" enable-background="new -419 171 300 100" xml:space="preserve">

<g>

	<g>

		

			<linearGradient id="SVGID_1_" gradientUnits="userSpaceOnUse" x1="-418.9877" y1="231.3876" x2="-380" y2="231.3876" gradientTransform="matrix(1 0 0 -1 0 444)">

			<stop offset="0" style="stop-color:#F07E1D"/>

			<stop offset="1" style="stop-color:#F9E18D"/>

		</linearGradient>

		<path fill="url(#SVGID_1_)" d="M-416.4,190.6l36.4,9.7l-9.2,34.4l-29.4-41C-419.7,192.2-418.3,190.1-416.4,190.6z"/>

		

			<linearGradient id="SVGID_2_" gradientUnits="userSpaceOnUse" x1="-417.6699" y1="235.5907" x2="-377.9406" y2="235.5907" gradientTransform="matrix(1 0 0 -1 0 444)">

			<stop offset="0" style="stop-color:#F9E18D"/>

			<stop offset="1" style="stop-color:#F4A43D"/>

		</linearGradient>

		<path fill="url(#SVGID_2_)" d="M-415.1,182.5l37.1,9.9l-11.2,42l-28.2-48.9C-418.3,183.9-416.8,182-415.1,182.5z"/>

		

			<linearGradient id="SVGID_3_" gradientUnits="userSpaceOnUse" x1="-337.2345" y1="238.1849" x2="-325.5855" y2="231.4593" gradientTransform="matrix(1 0 0 -1 0 444)">

			<stop offset="0" style="stop-color:#F07E1D"/>

			<stop offset="1" style="stop-color:#F9CF5D"/>

		</linearGradient>

		<path fill="url(#SVGID_3_)" d="M-338.3,216l4.2-15.7l10.9,2.9c1.8,0.5,2.1,2.9,0.5,3.8L-338.3,216z"/>

		

			<linearGradient id="SVGID_4_" gradientUnits="userSpaceOnUse" x1="-365.2" y1="217.35" x2="-334.0611" y2="217.35" gradientTransform="matrix(1 0 0 -1 0 444)">

			<stop offset="0" style="stop-color:#F07E1D"/>

			<stop offset="1" style="stop-color:#F9CF5D"/>

		</linearGradient>

		<polygon fill="url(#SVGID_4_)" points="-365.2,218.3 -348.2,253 -334.1,200.3   "/>

		

			<linearGradient id="SVGID_5_" gradientUnits="userSpaceOnUse" x1="-387.9304" y1="203.5338" x2="-359.5943" y2="219.8937" gradientTransform="matrix(1 0 0 -1 0 444)">

			<stop offset="0" style="stop-color:#F4A43D"/>

			<stop offset="1" style="stop-color:#F9CF5D"/>

		</linearGradient>

		<path fill="url(#SVGID_5_)" d="M-349.2,259.3l-36.7-17.5c-2.7-1.3-4.1-4.3-3.3-7.2l11.3-42.2l31.5,64.2     C-345.6,258.3-347.4,260.2-349.2,259.3z"/>

	</g>

	<g>

		<path fill="#6D6E70" d="M-302.3,259h-10.1l-9.3-30h9.2l5.2,21.7h0.4l5.1-21.7h8.7L-302.3,259z"/>

		<path fill="#6D6E70" d="M-282.3,259h-7.9v-30h7.9V259z"/>

		<path fill="#6D6E70" d="M-244.4,242.5v3.1c0,2.5,0.5,4.3,1.4,5.6s2.2,1.9,3.9,1.9c1.6,0,2.8-0.5,3.6-1.5c0.9-1,1.3-2.3,1.3-3.8     h7.5v1c0,3.1-1.1,5.7-3.4,7.7c-2.3,2-5.3,3-9.1,3c-4.2,0-7.5-1.2-9.8-3.7s-3.5-5.9-3.5-10.3v-3c0-4.4,1.2-7.8,3.5-10.3     s5.6-3.7,9.8-3.7c3.7,0,6.7,1,9,3.1c2.3,2,3.5,4.7,3.5,7.9v1h-7.5c0-1.6-0.4-2.9-1.3-3.9c-0.9-1-2.1-1.6-3.6-1.6     c-1.7,0-3,0.6-3.9,1.9S-244.4,240-244.4,242.5z"/>

		<path fill="#F4A43D" d="M-184.1,259h-7.9v-30h7.9V259z"/>

		<path fill="#6D6E70" d="M-175.5,258.3c-0.8-0.8-1.2-1.8-1.2-3s0.4-2.2,1.2-3s1.8-1.2,3-1.2s2.1,0.4,3,1.2c0.8,0.8,1.2,1.8,1.2,3     s-0.4,2.2-1.2,3c-0.8,0.8-1.8,1.2-3,1.2C-173.7,259.6-174.7,259.1-175.5,258.3z"/>

		<path fill="#6D6E70" d="M-161.1,259l-7.4-23.6h8.2l3.6,16.7h0.3l4.1-16.7h8l-7.9,23.6H-161.1z"/>

		<path fill="#6D6E70" d="M-141.4,259v-23.6h7.4v3.7h0.4c0.2-0.5,0.4-0.9,0.8-1.4c0.3-0.4,0.8-0.9,1.3-1.3s1.2-0.8,2-1     c0.8-0.3,1.7-0.4,2.7-0.4c2.4,0,4.3,0.7,5.7,2.2c1.4,1.5,2.1,3.6,2.1,6.5V259h-7.6v-13.4c0-1.5-0.3-2.6-1-3.2     c-0.7-0.7-1.5-1-2.5-1c-1.1,0-1.9,0.4-2.6,1.1c-0.7,0.8-1,1.8-1,3.2V259H-141.4z"/>

		<path fill="#F4A43D" d="M-199.8,232.4l-5.5,5.5c0.6,1.2,0.8,2.7,0.8,4.5v3.5c0,2.4-0.5,4.2-1.5,5.5c-1,1.3-2.4,1.9-4.1,1.9     c-1.7,0-3.1-0.6-4.1-1.9c-1-1.3-1.5-3.1-1.5-5.5v-3.5c0-2.4,0.5-4.3,1.5-5.6s2.4-1.9,4.1-1.9c1.4,0,2.5,0.4,3.4,1.3l5.1-5.1     c-2.2-1.6-5.1-2.5-8.5-2.5c-4.3,0-7.7,1.3-10.1,3.8c-2.4,2.5-3.6,5.9-3.6,10.2v3.3c0,4.3,1.2,7.6,3.6,10.1     c2.4,2.5,5.7,3.7,10.1,3.7s7.7-1.2,10.1-3.7c2.4-2.5,3.6-5.8,3.6-10.1v-3.3C-196.4,238.2-197.5,234.9-199.8,232.4z"/>

		<g>

			<path fill="#6D6E70" d="M-268.8,246.8h12v-5.7h-12v-3.5l-7.8-7.8V245c5.5,5.5,8.5,8.5,14,14h6.6v-6.2h-12.8V246.8z"/>

			<polygon fill="#6D6E70" points="-276.6,229 -276.7,229 -276.7,229    "/>

			<polygon fill="#F4A43D" points="-276,229 -268.8,236.1 -268.8,235.2 -256.1,235.2 -256.1,229    "/>

		</g>

	</g>

</g>

</svg>